<svg xmlns="http://www.w3.org/2000/svg" viewBox="0 0 810 810"><path fill="none" stroke="#08f" stroke-linecap="round" stroke-linejoin="round" stroke-width="67.5" d="M101.25 303.75 405 67.5l303.75 236.25V675c0 1.105-.027 2.207-.082 3.312a67.09 67.09 0 0 1-1.941 13.09 67.303 67.303 0 0 1-1.922 6.336 67.366 67.366 0 0 1-1.192 3.094 69.906 69.906 0 0 1-2.832 5.988 74.746 74.746 0 0 1-1.633 2.883c-.57.945-1.16 1.879-1.773 2.797a65.099 65.099 0 0 1-1.91 2.71 65.804 65.804 0 0 1-2.035 2.61 69.75 69.75 0 0 1-2.164 2.512 69.648 69.648 0 0 1-2.286 2.398 69.65 69.65 0 0 1-2.398 2.286c-.82.742-1.656 1.46-2.512 2.164a64.448 64.448 0 0 1-2.61 2.035 65.099 65.099 0 0 1-2.71 1.91 71.76 71.76 0 0 1-2.797 1.773c-.95.567-1.91 1.11-2.883 1.633a69.846 69.846 0 0 1-5.988 2.832 67.225 67.225 0 0 1-12.664 3.84 70.407 70.407 0 0 1-3.266.566c-1.09.16-2.187.297-3.285.407a72.257 72.257 0 0 1-3.305.242 66.969 66.969 0 0 1-3.312.082h-472.5c-1.105 0-2.207-.027-3.313-.082a72.257 72.257 0 0 1-3.304-.242 71.994 71.994 0 0 1-3.29-.407 71.152 71.152 0 0 1-3.261-.566 65.515 65.515 0 0 1-3.234-.726 67.225 67.225 0 0 1-6.336-1.922 67.326 67.326 0 0 1-3.094-1.192 69.826 69.826 0 0 1-5.988-2.832 74.792 74.792 0 0 1-2.883-1.633 71.76 71.76 0 0 1-2.797-1.773 65.099 65.099 0 0 1-2.71-1.91 65.766 65.766 0 0 1-2.61-2.035 69.715 69.715 0 0 1-2.512-2.164 69.65 69.65 0 0 1-2.398-2.286 69.648 69.648 0 0 1-2.286-2.398 69.75 69.75 0 0 1-2.164-2.512 65.804 65.804 0 0 1-2.035-2.61 65.099 65.099 0 0 1-1.91-2.71 71.801 71.801 0 0 1-1.773-2.797c-.567-.95-1.11-1.91-1.633-2.883a69.906 69.906 0 0 1-2.832-5.988 67.366 67.366 0 0 1-2.23-6.238 70.19 70.19 0 0 1-.884-3.192 65.525 65.525 0 0 1-.726-3.234 70.354 70.354 0 0 1-.567-3.266 67.09 67.09 0 0 1-.648-6.59 66.928 66.928 0 0 1-.082-3.312zm0 0"/><path fill="none" stroke="#08f" stroke-linecap="round" stroke-linejoin="round" stroke-width="33.375" d="m455.227 358.176 66.75 66.75M421.852 391.55l-71.758-71.753a40.623 40.623 0 0 0-2.922-2.637 39.307 39.307 0 0 0-3.164-2.336 39.9 39.9 0 0 0-6.938-3.695 40.218 40.218 0 0 0-3.707-1.32 38.91 38.91 0 0 0-3.816-.954 39.748 39.748 0 0 0-7.82-.769 40.058 40.058 0 0 0-11.641 1.723 40.192 40.192 0 0 0-7.266 2.996 39.358 39.358 0 0 0-3.379 2.02 39.307 39.307 0 0 0-3.164 2.335 40.623 40.623 0 0 0-2.922 2.637l-43.386 43.387a40.623 40.623 0 0 0-2.637 2.921 40.387 40.387 0 0 0-4.355 6.543 40.192 40.192 0 0 0-2.996 7.266 38.634 38.634 0 0 0-.954 3.816 39.747 39.747 0 0 0-.77 7.82 39.92 39.92 0 0 0 .77 7.825c.254 1.29.57 2.559.953 3.816a40.192 40.192 0 0 0 2.997 7.266 40.387 40.387 0 0 0 6.992 9.465l71.758 71.754m16.687-116.813 33.375-33.375"/><path fill="none" stroke="#08f" stroke-linecap="round" stroke-linejoin="round" stroke-width="33.375" d="m238.29 641.863 91.78-25.03 228.118-228.118a46.99 46.99 0 0 0 3.105-3.434 46.696 46.696 0 0 0 2.758-3.718 46.412 46.412 0 0 0 2.379-3.973 48.213 48.213 0 0 0 1.98-4.188 47.402 47.402 0 0 0 1.559-4.359 47.625 47.625 0 0 0 1.8-9.074 46.948 46.948 0 0 0-.004-9.25 47.728 47.728 0 0 0-.679-4.578 46.89 46.89 0 0 0-2.688-8.852 46.963 46.963 0 0 0-7.117-11.875 47.95 47.95 0 0 0-3.11-3.434 47.415 47.415 0 0 0-7.152-5.867 46.412 46.412 0 0 0-3.972-2.379 45.947 45.947 0 0 0-4.184-1.98 47.103 47.103 0 0 0-8.851-2.688 47.728 47.728 0 0 0-4.578-.68 46.947 46.947 0 0 0-13.832.677c-1.516.3-3.012.675-4.493 1.12a47.082 47.082 0 0 0-8.547 3.54 46.412 46.412 0 0 0-3.972 2.379 46.509 46.509 0 0 0-3.723 2.757 47.753 47.753 0 0 0-3.43 3.106L263.32 550.082zm267-100.125 33.374-33.375"/><path fill="none" stroke="#08f" stroke-linecap="round" stroke-linejoin="round" stroke-width="33.375" d="m488.602 458.3 71.753 71.759c15.688 15.687 15.688 41.05 0 56.738l-43.386 43.387c-15.688 15.687-41.051 15.687-56.739 0l-71.753-71.758"/></svg>